<svg width="200" height="51" viewBox="0 0 200 51" fill="none" xmlns="http://www.w3.org/2000/svg">
<path d="M9.06445 5.0127V6.89941C8.14388 6.12923 7.19141 5.74414 6.20703 5.74414C5.1224 5.74414 4.20866 6.13379 3.46582 6.91309C2.71842 7.68783 2.34473 8.63574 2.34473 9.75684C2.34473 10.8643 2.71842 11.7985 3.46582 12.5596C4.21322 13.3206 5.12923 13.7012 6.21387 13.7012C6.77441 13.7012 7.25065 13.61 7.64258 13.4277C7.86133 13.3366 8.08691 13.2135 8.31934 13.0586C8.55632 12.9036 8.80469 12.7168 9.06445 12.498V14.4189C8.15299 14.9339 7.19596 15.1914 6.19336 15.1914C4.6849 15.1914 3.39746 14.665 2.33105 13.6123C1.26921 12.5505 0.738281 11.2699 0.738281 9.77051C0.738281 8.42611 1.18262 7.22754 2.07129 6.1748C3.16504 4.88509 4.58008 4.24023 6.31641 4.24023C7.26432 4.24023 8.18034 4.49772 9.06445 5.0127ZM12.0452 3.4541V15H10.5071V3.4541H12.0452ZM15.2515 8.3418V15H13.7134V8.3418H15.2515ZM13.481 5.57324C13.481 5.30436 13.579 5.07194 13.775 4.87598C13.9709 4.68001 14.2056 4.58203 14.4791 4.58203C14.7571 4.58203 14.994 4.68001 15.19 4.87598C15.386 5.06738 15.4839 5.30208 15.4839 5.58008C15.4839 5.85807 15.386 6.09505 15.19 6.29102C14.9986 6.48698 14.7639 6.58496 14.4859 6.58496C14.2079 6.58496 13.9709 6.48698 13.775 6.29102C13.579 6.09505 13.481 5.85579 13.481 5.57324ZM18.4579 18.623H16.9198V8.3418H18.4579V9.06641C19.064 8.46029 19.7521 8.15723 20.5223 8.15723C21.4383 8.15723 22.1926 8.49447 22.785 9.16895C23.3866 9.83887 23.6873 10.6842 23.6873 11.7051C23.6873 12.7031 23.3888 13.5348 22.7918 14.2002C22.1994 14.861 21.452 15.1914 20.5496 15.1914C19.7704 15.1914 19.0731 14.8792 18.4579 14.2549V18.623ZM22.1151 11.7119C22.1151 11.0739 21.9419 10.5544 21.5955 10.1533C21.2446 9.74772 20.8026 9.54492 20.2694 9.54492C19.7043 9.54492 19.2463 9.74089 18.8954 10.1328C18.5444 10.5247 18.369 11.0397 18.369 11.6777C18.369 12.3021 18.5444 12.8171 18.8954 13.2227C19.2417 13.6191 19.6974 13.8174 20.2625 13.8174C20.7957 13.8174 21.2355 13.6169 21.5819 13.2158C21.9373 12.8148 22.1151 12.3135 22.1151 11.7119ZM33.128 5.0127V6.89941C32.2075 6.12923 31.255 5.74414 30.2706 5.74414C29.186 5.74414 28.2723 6.13379 27.5294 6.91309C26.782 7.68783 26.4083 8.63574 26.4083 9.75684C26.4083 10.8643 26.782 11.7985 27.5294 12.5596C28.2768 13.3206 29.1928 13.7012 30.2775 13.7012C30.838 13.7012 31.3142 13.61 31.7062 13.4277C31.9249 13.3366 32.1505 13.2135 32.3829 13.0586C32.6199 12.9036 32.8683 12.7168 33.128 12.498V14.4189C32.2166 14.9339 31.2596 15.1914 30.257 15.1914C28.7485 15.1914 27.4611 14.665 26.3946 13.6123C25.3328 12.5505 24.8019 11.2699 24.8019 9.77051C24.8019 8.42611 25.2462 7.22754 26.1349 6.1748C27.2286 4.88509 28.6437 4.24023 30.38 4.24023C31.3279 4.24023 32.2439 4.49772 33.128 5.0127ZM34.5707 8.3418H36.1088V8.93652C36.3913 8.6403 36.642 8.4375 36.8607 8.32812C37.084 8.21419 37.3484 8.15723 37.6537 8.15723C38.0593 8.15723 38.4831 8.28939 38.9252 8.55371L38.2211 9.96191C37.9294 9.75228 37.6446 9.64746 37.3666 9.64746C36.5281 9.64746 36.1088 10.2809 36.1088 11.5479V15H34.5707V8.3418ZM39.0895 11.623C39.0895 10.6615 39.4336 9.84342 40.1218 9.16895C40.8099 8.49447 41.6485 8.15723 42.6374 8.15723C43.6309 8.15723 44.474 8.49674 45.1667 9.17578C45.8503 9.85482 46.1921 10.6888 46.1921 11.6777C46.1921 12.6758 45.848 13.512 45.1598 14.1865C44.4671 14.8564 43.6172 15.1914 42.61 15.1914C41.612 15.1914 40.7757 14.8496 40.1012 14.166C39.4268 13.4915 39.0895 12.6439 39.0895 11.623ZM40.6618 11.6504C40.6618 12.3158 40.8395 12.8421 41.195 13.2295C41.5596 13.6214 42.0404 13.8174 42.6374 13.8174C43.2389 13.8174 43.7197 13.6237 44.0798 13.2363C44.4398 12.849 44.6198 12.3317 44.6198 11.6846C44.6198 11.0374 44.4398 10.5202 44.0798 10.1328C43.7152 9.74089 43.2344 9.54492 42.6374 9.54492C42.0495 9.54492 41.5733 9.74089 41.2087 10.1328C40.8441 10.5247 40.6618 11.0306 40.6618 11.6504ZM48.1064 8.3418L49.8496 12.1426L51.7295 7.7334L53.623 12.1426L55.3457 8.3418H57.0683L53.582 15.499L51.7295 11.2129L49.8564 15.499L46.3769 8.3418H48.1064Z" fill="#E6E6E5"/>
<path d="M12.1523 28.4727H4.89844V32.8203H11.9414V35.3867H4.89844V41.4336H12.1523V44H2.16797V25.9062H12.1523V28.4727ZM21.3872 34.5312L19.2075 35.6914C18.8638 34.9883 18.438 34.6367 17.9302 34.6367C17.688 34.6367 17.4809 34.7188 17.3091 34.8828C17.1372 35.0391 17.0513 35.2422 17.0513 35.4922C17.0513 35.9297 17.5591 36.3633 18.5747 36.793C19.9731 37.3945 20.9145 37.9492 21.3989 38.457C21.8833 38.9648 22.1255 39.6484 22.1255 40.5078C22.1255 41.6094 21.7192 42.5312 20.9067 43.2734C20.1177 43.9766 19.1645 44.3281 18.0473 44.3281C16.1333 44.3281 14.7778 43.3945 13.9809 41.5273L16.2309 40.4844C16.5434 41.0312 16.7817 41.3789 16.9458 41.5273C17.2661 41.8242 17.6489 41.9727 18.0942 41.9727C18.9848 41.9727 19.4302 41.5664 19.4302 40.7539C19.4302 40.2852 19.0864 39.8477 18.3989 39.4414C18.1333 39.3086 17.8677 39.1797 17.602 39.0547C17.3364 38.9297 17.0669 38.8008 16.7934 38.668C16.0278 38.293 15.4888 37.918 15.1763 37.543C14.7778 37.0664 14.5786 36.4531 14.5786 35.7031C14.5786 34.7109 14.9184 33.8906 15.5981 33.2422C16.2934 32.5938 17.1372 32.2695 18.1294 32.2695C19.5903 32.2695 20.6763 33.0234 21.3872 34.5312ZM30.6572 34.5312L28.4775 35.6914C28.1338 34.9883 27.708 34.6367 27.2002 34.6367C26.958 34.6367 26.7509 34.7188 26.5791 34.8828C26.4072 35.0391 26.3213 35.2422 26.3213 35.4922C26.3213 35.9297 26.8291 36.3633 27.8447 36.793C29.2431 37.3945 30.1845 37.9492 30.6689 38.457C31.1533 38.9648 31.3955 39.6484 31.3955 40.5078C31.3955 41.6094 30.9892 42.5312 30.1767 43.2734C29.3877 43.9766 28.4345 44.3281 27.3173 44.3281C25.4033 44.3281 24.0478 43.3945 23.2509 41.5273L25.5009 40.4844C25.8134 41.0312 26.0517 41.3789 26.2158 41.5273C26.5361 41.8242 26.9189 41.9727 27.3642 41.9727C28.2548 41.9727 28.7002 41.5664 28.7002 40.7539C28.7002 40.2852 28.3564 39.8477 27.6689 39.4414C27.4033 39.3086 27.1377 39.1797 26.872 39.0547C26.6064 38.9297 26.3369 38.8008 26.0634 38.668C25.2978 38.293 24.7588 37.918 24.4463 37.543C24.0478 37.0664 23.8486 36.4531 23.8486 35.7031C23.8486 34.7109 24.1884 33.8906 24.8681 33.2422C25.5634 32.5938 26.4072 32.2695 27.3994 32.2695C28.8603 32.2695 29.9463 33.0234 30.6572 34.5312ZM43.6889 38.9141H35.5092C35.5795 39.8516 35.8842 40.5977 36.4233 41.1523C36.9623 41.6992 37.6537 41.9727 38.4975 41.9727C39.1537 41.9727 39.6967 41.8164 40.1264 41.5039C40.5483 41.1914 41.0287 40.6133 41.5678 39.7695L43.7944 41.0117C43.4506 41.5977 43.0873 42.1016 42.7045 42.5234C42.3217 42.9375 41.9116 43.2812 41.4741 43.5547C41.0366 43.8203 40.5639 44.0156 40.0561 44.1406C39.5483 44.2656 38.9975 44.3281 38.4037 44.3281C36.7006 44.3281 35.3334 43.7812 34.3022 42.6875C33.2709 41.5859 32.7553 40.125 32.7553 38.3047C32.7553 36.5 33.2553 35.0391 34.2553 33.9219C35.2631 32.8203 36.5991 32.2695 38.2631 32.2695C39.9428 32.2695 41.2709 32.8047 42.2475 33.875C43.2162 34.9375 43.7006 36.4102 43.7006 38.293L43.6889 38.9141ZM40.9819 36.7578C40.6147 35.3516 39.728 34.6484 38.3217 34.6484C38.0014 34.6484 37.7006 34.6992 37.4194 34.8008C37.1381 34.8945 36.8803 35.0352 36.6459 35.2227C36.4194 35.4023 36.2241 35.6211 36.06 35.8789C35.8959 36.1367 35.7709 36.4297 35.685 36.7578H40.9819ZM46.1034 32.5859H48.7519V33.6406C49.6738 32.7266 50.7128 32.2695 51.8691 32.2695C53.1972 32.2695 54.2323 32.6875 54.9745 33.5234C55.6152 34.2344 55.9355 35.3945 55.9355 37.0039V44H53.287V37.625C53.287 36.5 53.1308 35.7227 52.8183 35.293C52.5136 34.8555 51.9589 34.6367 51.1542 34.6367C50.2792 34.6367 49.6581 34.9258 49.2909 35.5039C48.9316 36.0742 48.7519 37.0703 48.7519 38.4922V44H46.1034V32.5859ZM61.5141 35.0469V44H58.8773V35.0469H57.7523V32.5859H58.8773V28.4023H61.5141V32.5859H63.5648V35.0469H61.5141ZM67.5145 32.5859V44H64.8778V32.5859H67.5145ZM64.4794 27.8398C64.4794 27.3789 64.6473 26.9805 64.9833 26.6445C65.3192 26.3086 65.7216 26.1406 66.1903 26.1406C66.6669 26.1406 67.0731 26.3086 67.4091 26.6445C67.745 26.9727 67.913 27.375 67.913 27.8516C67.913 28.3281 67.745 28.7344 67.4091 29.0703C67.0809 29.4062 66.6786 29.5742 66.202 29.5742C65.7255 29.5742 65.3192 29.4062 64.9833 29.0703C64.6473 28.7344 64.4794 28.3242 64.4794 27.8398ZM78.7884 32.5859H81.4369V44H78.7884V42.8047C77.7025 43.8203 76.5345 44.3281 75.2845 44.3281C73.7064 44.3281 72.4017 43.7578 71.3705 42.6172C70.347 41.4531 69.8353 40 69.8353 38.2578C69.8353 36.5469 70.347 35.1211 71.3705 33.9805C72.3939 32.8398 73.6752 32.2695 75.2142 32.2695C76.5423 32.2695 77.7337 32.8164 78.7884 33.9102V32.5859ZM72.5306 38.2578C72.5306 39.3516 72.8236 40.2422 73.4095 40.9297C74.0111 41.625 74.7689 41.9727 75.683 41.9727C76.6595 41.9727 77.4486 41.6367 78.0502 40.9648C78.6517 40.2695 78.9525 39.3867 78.9525 38.3164C78.9525 37.2461 78.6517 36.3633 78.0502 35.668C77.4486 34.9883 76.6673 34.6484 75.7064 34.6484C74.8002 34.6484 74.0423 34.9922 73.433 35.6797C72.8314 36.375 72.5306 37.2344 72.5306 38.2578ZM86.9217 24.207V44H84.285V24.207H86.9217ZM91.1761 25.9062L95.887 38L100.809 25.0273L105.52 38L110.524 25.9062H113.489L105.403 45.1484L100.75 32.3281L95.8988 45.1602L88.2113 25.9062H91.1761ZM112.716 38.2109C112.716 36.5625 113.305 35.1602 114.485 34.0039C115.665 32.8477 117.102 32.2695 118.798 32.2695C120.501 32.2695 121.946 32.8516 123.134 34.0156C124.305 35.1797 124.891 36.6094 124.891 38.3047C124.891 40.0156 124.302 41.4492 123.122 42.6055C121.934 43.7539 120.477 44.3281 118.751 44.3281C117.04 44.3281 115.606 43.7422 114.45 42.5703C113.294 41.4141 112.716 39.9609 112.716 38.2109ZM115.411 38.2578C115.411 39.3984 115.716 40.3008 116.325 40.9648C116.95 41.6367 117.774 41.9727 118.798 41.9727C119.829 41.9727 120.653 41.6406 121.27 40.9766C121.887 40.3125 122.196 39.4258 122.196 38.3164C122.196 37.207 121.887 36.3203 121.27 35.6562C120.645 34.9844 119.821 34.6484 118.798 34.6484C117.79 34.6484 116.973 34.9844 116.348 35.6562C115.723 36.3281 115.411 37.1953 115.411 38.2578ZM127.212 32.5859H129.849V33.6055C130.333 33.0977 130.763 32.75 131.138 32.5625C131.521 32.3672 131.974 32.2695 132.497 32.2695C133.193 32.2695 133.919 32.4961 134.677 32.9492L133.47 35.3633C132.97 35.0039 132.482 34.8242 132.005 34.8242C130.568 34.8242 129.849 35.9102 129.849 38.082V44H127.212V32.5859ZM138.72 24.207V36.2773L142.435 32.5859H145.974L141.017 37.3789L146.338 44H142.916L139.142 39.1836L138.72 39.6055V44H136.084V24.207H138.72ZM148.987 32.5859L151.975 39.1016L155.197 31.543L158.444 39.1016L161.397 32.5859H164.35L158.373 44.8555L155.197 37.5078L151.987 44.8555L146.022 32.5859H148.987ZM173.678 32.5859H176.327V44H173.678V42.8047C172.592 43.8203 171.425 44.3281 170.175 44.3281C168.596 44.3281 167.292 43.7578 166.26 42.6172C165.237 41.4531 164.725 40 164.725 38.2578C164.725 36.5469 165.237 35.1211 166.26 33.9805C167.284 32.8398 168.565 32.2695 170.104 32.2695C171.432 32.2695 172.624 32.8164 173.678 33.9102V32.5859ZM167.421 38.2578C167.421 39.3516 167.714 40.2422 168.3 40.9297C168.901 41.625 169.659 41.9727 170.573 41.9727C171.55 41.9727 172.339 41.6367 172.94 40.9648C173.542 40.2695 173.842 39.3867 173.842 38.3164C173.842 37.2461 173.542 36.3633 172.94 35.668C172.339 34.9883 171.557 34.6484 170.596 34.6484C169.69 34.6484 168.932 34.9922 168.323 35.6797C167.721 36.375 167.421 37.2344 167.421 38.2578ZM179.175 32.5859H181.812V33.6055C182.296 33.0977 182.726 32.75 183.101 32.5625C183.484 32.3672 183.937 32.2695 184.46 32.2695C185.155 32.2695 185.882 32.4961 186.64 32.9492L185.433 35.3633C184.933 35.0039 184.445 34.8242 183.968 34.8242C182.53 34.8242 181.812 35.9102 181.812 38.082V44H179.175V32.5859ZM197.902 38.9141H189.722C189.793 39.8516 190.097 40.5977 190.636 41.1523C191.175 41.6992 191.867 41.9727 192.711 41.9727C193.367 41.9727 193.91 41.8164 194.34 41.5039C194.761 41.1914 195.242 40.6133 195.781 39.7695L198.008 41.0117C197.664 41.5977 197.3 42.1016 196.918 42.5234C196.535 42.9375 196.125 43.2812 195.687 43.5547C195.25 43.8203 194.777 44.0156 194.269 44.1406C193.761 44.2656 193.211 44.3281 192.617 44.3281C190.914 44.3281 189.547 43.7812 188.515 42.6875C187.484 41.5859 186.968 40.125 186.968 38.3047C186.968 36.5 187.468 35.0391 188.468 33.9219C189.476 32.8203 190.812 32.2695 192.476 32.2695C194.156 32.2695 195.484 32.8047 196.461 33.875C197.429 34.9375 197.914 36.4102 197.914 38.293L197.902 38.9141ZM195.195 36.7578C194.828 35.3516 193.941 34.6484 192.535 34.6484C192.215 34.6484 191.914 34.6992 191.633 34.8008C191.351 34.8945 191.093 35.0352 190.859 35.2227C190.633 35.4023 190.437 35.6211 190.273 35.8789C190.109 36.1367 189.984 36.4297 189.898 36.7578H195.195Z" fill="#E6E6E5"/>
</svg>
