<svg width="712" height="153" viewBox="0 0 712 153" fill="none" xmlns="http://www.w3.org/2000/svg">
<path d="M23.32 10.48L23.3254 15.3316C20.956 13.3538 18.5057 12.3662 15.9744 12.369C13.1854 12.3721 10.8369 13.3767 8.92894 15.3827C7.00927 17.377 6.05103 19.8156 6.05423 22.6984C6.05738 25.546 7.02098 27.9473 8.94502 29.9022C10.8691 31.8571 13.2256 32.833 16.0147 32.8299C17.4561 32.8283 18.6804 32.5926 19.6877 32.1228C20.25 31.8878 20.8297 31.5707 21.4269 31.1716C22.0358 30.7725 22.674 30.2913 23.3413 29.7281L23.3468 34.6675C21.0045 35.9943 18.5443 36.6592 15.9662 36.662C12.0873 36.6663 8.77523 35.3165 6.03005 32.6125C3.29656 29.885 1.92768 26.5936 1.92341 22.7381C1.91958 19.2811 3.05874 16.1978 5.3409 13.4882C8.14973 10.1687 11.7866 8.50649 16.2514 8.50154C18.6889 8.49884 21.0451 9.15834 23.32 10.48ZM31.7003 6.46295L31.7332 36.1524L27.7781 36.1568L27.7453 6.46733L31.7003 6.46295ZM40.6791 19.0214L40.698 36.1425L36.743 36.1468L36.724 19.0258L40.6791 19.0214ZM36.1185 11.9073C36.1177 11.2159 36.369 10.6179 36.8723 10.1135C37.3757 9.60901 37.9789 9.35639 38.6821 9.35561C39.3969 9.35482 40.0065 9.6061 40.511 10.1094C41.0155 10.6011 41.2681 11.2043 41.2689 11.9192C41.2697 12.634 41.0184 13.2437 40.515 13.7481C40.0234 14.2526 39.4202 14.5052 38.7053 14.506C37.9905 14.5068 37.3808 14.2555 36.8764 13.7521C36.3719 13.2488 36.1193 12.6338 36.1185 11.9073ZM49.6732 45.4489L45.7181 45.4533L45.6888 19.0158L49.6439 19.0115L49.646 20.8747C51.2029 19.3144 52.9715 18.5332 54.952 18.531C57.3075 18.5284 59.2479 19.3934 60.7732 21.1261C62.322 22.847 63.0978 25.02 63.1008 27.645C63.1036 30.2114 62.3384 32.3509 60.8051 34.0636C59.2836 35.7645 57.3626 36.6162 55.0423 36.6188C53.0384 36.621 51.2446 35.8202 49.6608 34.2165L49.6732 45.4489ZM59.0578 27.667C59.056 26.0264 58.6092 24.691 57.7174 23.6607C56.8139 22.6187 55.6766 22.0985 54.3055 22.1C52.8524 22.1016 51.6752 22.6069 50.774 23.6157C49.8728 24.6245 49.4231 25.9492 49.4249 27.5898C49.4267 29.1953 49.8793 30.519 50.7828 31.561C51.6746 32.5795 52.847 33.088 54.3001 33.0864C55.6712 33.0849 56.8015 32.568 57.691 31.5358C58.6039 30.5035 59.0595 29.2139 59.0578 27.667ZM88.0778 10.4083L88.0832 15.2599C85.7138 13.2821 83.2635 12.2945 80.7322 12.2973C77.9431 12.3004 75.5946 13.305 73.6867 15.311C71.767 17.3053 70.8088 19.7439 70.812 22.6267C70.8152 25.4743 71.7787 27.8756 73.7028 29.8305C75.6268 31.7854 77.9834 32.7613 80.7724 32.7582C82.2138 32.7566 83.4382 32.5209 84.4455 32.051C85.0077 31.8161 85.5875 31.499 86.1847 31.0999C86.7936 30.7008 87.4317 30.2196 88.0991 29.6564L88.1046 34.5958C85.7623 35.9226 83.3021 36.5875 80.724 36.5903C76.845 36.5946 73.533 35.2448 70.7878 32.5408C68.0543 29.8133 66.6855 26.5219 66.6812 22.6664C66.6774 19.2094 67.8165 16.1261 70.0987 13.4165C72.9075 10.097 76.5443 8.43478 81.0092 8.42984C83.4467 8.42714 85.8029 9.08664 88.0778 10.4083ZM92.5169 18.964L96.472 18.9596L96.4737 20.4889C97.1994 19.7264 97.8434 19.2042 98.4056 18.9223C98.9795 18.6287 99.659 18.4815 100.444 18.4806C101.487 18.4794 102.577 18.8181 103.715 19.4965L101.908 23.1196C101.158 22.5814 100.425 22.3126 99.7101 22.3134C97.5539 22.3158 96.4775 23.9459 96.4811 27.2037L96.491 36.0807L92.5359 36.0851L92.5169 18.964ZM104.866 27.3878C104.863 24.9152 105.746 22.8107 107.513 21.0743C109.281 19.338 111.436 18.4684 113.979 18.4656C116.534 18.4628 118.703 19.3334 120.486 21.0775C122.246 22.8217 123.127 24.9652 123.13 27.5082C123.133 30.0746 122.25 32.226 120.483 33.9623C118.703 35.6869 116.519 36.5507 113.929 36.5536C111.363 36.5564 109.211 35.6799 107.475 33.924C105.739 32.1915 104.869 30.0128 104.866 27.3878ZM108.909 27.4536C108.911 29.1646 109.37 30.5176 110.285 31.5127C111.223 32.5194 112.46 33.022 113.995 33.0203C115.542 33.0186 116.778 32.5192 117.703 31.522C118.627 30.5249 119.089 29.1943 119.087 27.5303C119.085 25.8662 118.621 24.5366 117.694 23.5416C116.755 22.5348 115.518 22.0323 113.983 22.034C112.472 22.0356 111.247 22.5409 110.311 23.5497C109.375 24.5586 108.907 25.8599 108.909 27.4536ZM128.763 18.9238L133.256 28.6923L138.078 17.3491L142.959 28.6816L147.378 18.9032L151.808 18.8983L142.863 37.3125L138.088 26.2963L133.283 37.3231L124.316 18.9288L128.763 18.9238Z" fill="#5B5B55"/>
<path d="M40.5435 78.5601L16.3638 78.5869L16.3799 93.0791L39.8564 93.0531L39.8659 101.608L16.3893 101.634L16.4117 121.79L40.5913 121.763L40.6008 130.318L7.31957 130.355L7.25279 70.0423L40.534 70.0054L40.5435 78.5601ZM71.3486 98.7213L64.0873 102.597C62.9389 100.254 61.5183 99.0838 59.8256 99.0856C59.0183 99.0865 58.3285 99.3607 57.7562 99.9083C57.1839 100.43 56.8982 101.107 56.8991 101.94C56.9007 103.399 58.595 104.842 61.982 106.271C66.6457 108.271 69.7857 110.116 71.4022 111.807C73.0187 113.498 73.8285 115.776 73.8316 118.64C73.8357 122.312 72.4849 125.387 69.7793 127.864C67.1517 130.21 63.976 131.386 60.252 131.39C53.8718 131.397 49.3501 128.29 46.687 122.069L54.1831 118.584C55.2268 120.406 56.0224 121.564 56.5698 122.058C57.6386 123.046 58.9152 123.54 60.3996 123.538C63.3683 123.535 64.8512 122.179 64.8482 119.471C64.8464 117.908 63.699 116.451 61.4058 115.1C60.5199 114.658 59.634 114.229 58.7482 113.813C57.8623 113.398 56.9634 112.969 56.0514 112.527C53.498 111.28 51.6997 110.032 50.6566 108.783C49.3268 107.196 48.6604 105.153 48.6577 102.653C48.654 99.3454 49.7838 96.6098 52.047 94.4458C54.3623 92.2818 57.1736 91.198 60.4809 91.1943C65.3507 91.1889 68.9733 93.6979 71.3486 98.7213ZM102.249 98.6871L94.9873 102.562C93.8389 100.22 92.4183 99.0496 90.7256 99.0514C89.9183 99.0523 89.2285 99.3265 88.6562 99.874C88.0838 100.396 87.7981 101.073 87.7991 101.906C87.8007 103.365 89.495 104.808 92.882 106.237C97.5457 108.237 100.686 110.082 102.302 111.773C103.919 113.464 104.728 115.742 104.732 118.606C104.736 122.278 103.385 125.353 100.679 127.829C98.0517 130.176 94.8759 131.352 91.152 131.356C84.7718 131.363 80.2501 128.256 77.587 122.035L85.0831 118.55C86.1268 120.372 86.9223 121.53 87.4698 122.024C88.5386 123.012 89.8152 123.506 91.2995 123.504C94.2683 123.501 95.7512 122.145 95.7482 119.437C95.7464 117.874 94.599 116.417 92.3058 115.065C91.4199 114.624 90.534 114.195 89.6481 113.779C88.7623 113.364 87.8634 112.935 86.9514 112.493C84.3979 111.246 82.5997 109.998 81.5566 108.749C80.2267 107.162 79.5604 105.118 79.5577 102.618C79.554 99.3112 80.6838 96.5756 82.947 94.4116C85.2623 92.2476 88.0736 91.1637 91.3809 91.1601C96.2507 91.1547 99.8733 93.6637 102.249 98.6871ZM145.704 113.248L118.438 113.279C118.676 116.403 119.694 118.889 121.493 120.736C123.292 122.557 125.598 123.466 128.41 123.463C130.598 123.46 132.407 122.938 133.838 121.894C135.243 120.851 136.843 118.922 138.637 116.108L146.063 120.24C144.919 122.195 143.71 123.876 142.436 125.283C141.161 126.665 139.795 127.812 138.338 128.725C136.881 129.612 135.306 130.265 133.614 130.684C131.922 131.102 130.086 131.313 128.107 131.315C122.43 131.321 117.87 129.503 114.429 125.861C110.987 122.193 109.263 117.325 109.256 111.257C109.25 105.242 110.911 100.37 114.24 96.6426C117.595 92.967 122.047 91.1261 127.593 91.12C133.192 91.1138 137.621 92.8927 140.881 96.4568C144.114 99.9949 145.734 104.902 145.741 111.178L145.704 113.248ZM136.672 106.071C135.443 101.385 132.485 99.0443 127.797 99.0494C126.73 99.0506 125.727 99.221 124.79 99.5606C123.853 99.8741 122.994 100.344 122.214 100.97C121.459 101.569 120.809 102.299 120.263 103.159C119.717 104.019 119.301 104.996 119.016 106.09L136.672 106.071ZM153.729 92.1457L162.557 92.136L162.561 95.6516C165.63 92.6013 169.092 91.074 172.946 91.0698C177.374 91.0649 180.826 92.4543 183.303 95.238C185.441 97.6054 186.513 101.471 186.519 106.836L186.544 130.156L177.716 130.166L177.693 108.916C177.689 105.166 177.165 102.576 176.122 101.144C175.104 99.6872 173.255 98.9601 170.572 98.963C167.656 98.9663 165.587 99.9321 164.365 101.861C163.169 103.763 162.574 107.084 162.579 111.823L162.599 130.183L153.771 130.193L153.729 92.1457ZM205.107 100.292L205.14 130.136L196.351 130.145L196.318 100.302L192.568 100.306L192.559 92.1027L196.309 92.0986L196.293 78.1533L205.082 78.1435L205.098 92.0889L211.934 92.0813L211.943 100.284L205.107 100.292ZM225.099 92.0667L225.141 130.114L216.352 130.123L216.31 92.0764L225.099 92.0667ZM214.964 76.2576C214.963 74.7211 215.521 73.3924 216.64 72.2714C217.758 71.1503 219.099 70.589 220.661 70.5872C222.25 70.5855 223.605 71.1439 224.726 72.2624C225.847 73.3549 226.408 74.6955 226.41 76.284C226.412 77.8725 225.853 79.2273 224.735 80.3484C223.642 81.4694 222.302 82.0307 220.713 82.0325C219.125 82.0343 217.77 81.4759 216.649 80.3573C215.528 79.2388 214.966 77.8722 214.964 76.2576ZM262.679 92.0251L271.507 92.0153L271.549 130.062L262.721 130.072L262.717 126.088C259.101 129.477 255.209 131.174 251.043 131.179C245.782 131.184 241.431 129.288 237.989 125.49C234.574 121.614 232.862 116.772 232.856 110.964C232.85 105.261 234.55 100.507 237.957 96.7009C241.365 92.8951 245.633 90.9893 250.764 90.9836C255.191 90.9787 259.164 92.7972 262.684 96.4392L262.679 92.0251ZM241.84 110.954C241.844 114.6 242.824 117.568 244.78 119.857C246.788 122.173 249.315 123.329 252.362 123.326C255.617 123.322 258.246 122.199 260.249 119.957C262.251 117.638 263.251 114.694 263.247 111.126C263.243 107.558 262.237 104.617 260.229 102.301C258.222 100.038 255.616 98.9079 252.413 98.9115C249.392 98.9148 246.867 100.063 244.839 102.357C242.836 104.677 241.837 107.543 241.84 110.954ZM289.759 64.0654L289.832 130.042L281.043 130.052L280.97 64.0751L289.759 64.0654ZM327.034 69.6882L342.782 109.983L359.14 66.723L374.891 109.948L391.526 69.6168L401.409 69.6059L374.527 133.776L358.972 91.0591L342.847 133.85L317.151 69.6991L327.034 69.6882ZM398.878 110.624C398.872 105.13 400.833 100.453 404.761 96.5943C408.689 92.7358 413.478 90.8034 419.129 90.7972C424.806 90.7909 429.626 92.7257 433.589 96.6015C437.499 100.477 439.458 105.241 439.464 110.892C439.47 116.595 437.509 121.376 433.581 125.234C429.627 129.067 424.773 130.986 419.017 130.993C413.314 130.999 408.533 129.051 404.675 125.149C400.817 121.299 398.884 116.458 398.878 110.624ZM407.862 110.771C407.866 114.573 408.885 117.579 410.919 119.791C413.005 122.028 415.754 123.145 419.165 123.141C422.602 123.137 425.349 122.027 427.403 119.811C429.458 117.596 430.484 114.639 430.48 110.941C430.475 107.243 429.444 104.288 427.384 102.077C425.298 99.8398 422.549 98.7231 419.138 98.7269C415.779 98.7306 413.058 99.8534 410.978 102.095C408.897 104.337 407.858 107.229 407.862 110.771ZM447.179 91.8208L455.968 91.8111L455.972 95.2095C457.584 93.515 459.015 92.3546 460.265 91.7282C461.54 91.0757 463.05 90.7485 464.795 90.7466C467.112 90.7441 469.535 91.4966 472.063 93.0042L468.048 101.056C466.38 99.8595 464.752 99.2623 463.164 99.2641C458.372 99.2694 455.98 102.892 455.988 110.131L456.01 129.858L447.221 129.868L447.179 91.8208ZM485.509 63.8487L485.553 104.083L497.922 91.7646L509.719 91.7516L493.214 107.746L510.972 129.797L499.566 129.81L486.97 113.769L485.566 115.177L485.582 129.825L476.793 129.835L476.72 63.8584L485.509 63.8487ZM519.76 91.7404L529.745 113.448L540.459 88.241L551.307 113.424L561.127 91.6946L570.971 91.6837L551.094 132.604L540.481 108.124L529.805 132.628L509.877 91.7514L519.76 91.7404ZM602.066 91.6493L610.894 91.6395L610.936 129.686L602.108 129.696L602.104 125.712C598.488 129.101 594.596 130.798 590.43 130.803C585.169 130.809 580.818 128.912 577.377 125.114C573.961 121.238 572.25 116.396 572.243 110.589C572.237 104.885 573.938 100.131 577.345 96.3251C580.752 92.5193 585.021 90.6135 590.151 90.6078C594.578 90.6029 598.551 92.4214 602.071 96.0634L602.066 91.6493ZM581.228 110.579C581.232 114.224 582.212 117.192 584.167 119.482C586.175 121.797 588.702 122.953 591.749 122.95C595.004 122.946 597.633 121.824 599.636 119.582C601.639 117.262 602.638 114.318 602.634 110.75C602.63 107.183 601.624 104.241 599.617 101.925C597.609 99.6621 595.003 98.5321 591.8 98.5357C588.779 98.539 586.255 99.6877 584.226 101.982C582.223 104.302 581.224 107.167 581.228 110.579ZM620.388 91.629L629.177 91.6193L629.181 95.0177C630.794 93.3232 632.225 92.1628 633.474 91.5364C634.749 90.884 636.259 90.5568 638.004 90.5548C640.322 90.5523 642.744 91.3048 645.272 92.8124L641.258 100.864C639.59 99.6677 637.961 99.0705 636.373 99.0723C631.581 99.0776 629.189 102.7 629.197 109.94L629.219 129.666L620.43 129.676L620.388 91.629ZM682.835 112.654L655.569 112.684C655.807 115.809 656.825 118.294 658.624 120.141C660.423 121.962 662.729 122.871 665.541 122.868C667.729 122.866 669.538 122.343 670.969 121.3C672.374 120.256 673.974 118.328 675.768 115.513L683.194 119.645C682.05 121.6 680.841 123.281 679.567 124.689C678.292 126.07 676.926 127.217 675.469 128.131C674.012 129.018 672.437 129.67 670.745 130.089C669.052 130.507 667.217 130.718 665.238 130.72C659.56 130.726 655.001 128.908 651.56 125.266C648.118 121.598 646.394 116.73 646.387 110.663C646.381 104.647 648.042 99.7755 651.371 96.0478C654.726 92.3723 659.177 90.5314 664.724 90.5252C670.323 90.519 674.752 92.298 678.011 95.8621C681.245 99.4002 682.865 104.307 682.872 110.583L682.835 112.654ZM673.803 105.476C672.574 100.79 669.616 98.4495 664.928 98.4547C663.861 98.4559 662.858 98.6263 661.921 98.9659C660.984 99.2794 660.125 99.7491 659.345 100.375C658.59 100.975 657.94 101.705 657.394 102.565C656.848 103.425 656.432 104.402 656.147 105.496L673.803 105.476Z" fill="#5B5B55"/>
</svg>
