<svg width="40" height="62" viewBox="0 0 40 62" fill="none" xmlns="http://www.w3.org/2000/svg">
<path fill-rule="evenodd" clip-rule="evenodd" d="M0.694824 5.45365C0.826118 4.84067 1.54723 4.42122 2.57699 3.83501C3.60676 3.24881 5.49766 2.81743 6.69837 2.71385C7.49882 2.64479 8.16032 2.59643 8.68248 2.56876C10.9726 1.10626 13.1014 0.375 15.0691 0.375C18.0207 0.375 20.2266 1.94506 21.1243 2.71385C22.0221 3.48265 25.7507 6.81229 26.7689 8.42997C27.7872 10.0476 28.058 10.6773 28.872 12.2875C29.6862 13.8978 31.1341 15.437 32.3954 16.2906C33.6567 17.1442 35.4177 18.1985 36.2242 19.5994C37.0305 21.0001 37.3453 21.0968 38.4128 24.8477C39.1244 27.3484 39.4094 29.7599 39.2679 32.0824C39.283 33.3885 39.2412 34.4759 39.1423 35.3453C39.1025 35.6948 38.9304 35.475 38.9192 35.692C38.8888 36.2846 38.9881 36.7426 38.6092 37.8729C38.0912 39.4173 37.7393 39.2545 37.1952 40.658C36.6512 42.0617 36.6311 42.3743 35.9433 43.6814C35.2554 44.9886 35.0003 44.7246 34.4442 45.3437C33.8882 45.9629 33.7204 46.2841 33.7204 46.7504C33.7204 47.2168 35.412 53.3429 35.9433 54.9564C36.4745 56.5697 37.9814 58.8633 38.1905 59.6797C38.3994 60.4958 37.876 61.1339 37.1952 61.4373C36.7413 61.6397 35.583 61.6784 33.7204 61.5537L29.1435 60.9058L27.5783 60.465C26.2639 61.1131 24.9905 61.476 23.7587 61.5537C23.1788 61.5902 21.5918 61.6453 20.4648 61.4373C19.7805 61.3111 18.92 60.9869 17.8831 60.465H16.2532C15.3025 59.9034 14.8272 59.3905 14.8272 58.9256C14.8272 58.461 15.0354 57.5976 15.4521 56.3356L17.1059 51.0848C17.1934 50.0881 17.1934 49.5181 17.1059 49.3746C17.0184 49.2311 16.7342 49.3945 16.2532 49.8648C16.0983 50.0798 15.7352 50.6256 15.1636 51.5023C14.3061 52.8175 14.2131 53.1255 14.5268 53.5256C14.8405 53.9259 14.9291 54.2251 14.9291 54.4752C14.9291 54.6418 14.895 54.9829 14.8272 55.4982C14.5682 55.5567 14.4065 55.5567 14.342 55.4982C14.2453 55.4107 14.1059 55.0901 13.9277 55.0901C13.7091 55.0901 13.5512 55.1876 13.4536 55.3825C13.1419 55.3825 12.9534 55.3825 12.8884 55.3825C12.6657 55.0901 12.569 54.8606 11.9106 54.8606C11.2519 54.8606 9.95451 55.381 9.64061 55.4982C9.43126 55.5763 9.05282 55.605 8.50529 55.584C8.71814 55.1655 9.09657 54.8965 9.64061 54.7768C10.4565 54.5972 11.4737 54.4752 12.4505 53.5256C13.427 52.5762 14.1609 51.3879 14.5268 50.7492C14.8926 50.1104 15.6068 49.0992 15.7566 48.4519C15.9067 47.8048 15.6691 46.967 15.4521 46.4009C15.3075 46.0235 15.2113 45.1903 15.1636 43.9012C14.5301 42.8055 14.1182 42.0235 13.9277 41.5553C13.642 40.8529 13.4536 40.5826 13.3423 40.0547C13.2681 39.7027 13.1977 39.2012 13.1312 38.5497C12.4725 37.9775 12.0657 37.5089 11.9106 37.1438C11.7555 36.7787 11.4764 35.5178 11.0734 33.3608C10.8179 32.7106 10.6379 32.335 10.5329 32.234C10.4281 32.1329 10.3325 32.3488 10.2461 32.8815C9.96523 32.6712 9.76332 32.4556 9.64061 32.234C9.45642 31.9017 9.50126 31.5648 9.50126 31.1997C9.50126 30.9562 9.54764 30.2064 9.64061 28.9503L10.5329 25.2607C11.1754 23.3118 11.6345 21.984 11.9106 21.2768C12.1864 20.5698 12.5933 19.7499 13.1312 18.8176L13.7581 17.6188C14.0615 16.4493 14.1182 15.5647 13.9277 14.965C13.7374 14.3653 13.3578 13.5134 12.7893 12.4092C12.2628 11.6428 11.8231 11.0589 11.4704 10.6576C11.1176 10.2563 10.6199 9.60244 9.97726 8.69612C9.56929 8.17348 9.1377 7.75958 8.68248 7.45445C7.99998 6.99674 5.81968 6.49232 4.83478 6.26581C4.17818 6.11478 3.51082 5.9983 2.83269 5.91637L1.56114 5.79829C1.15827 5.71329 0.869496 5.5984 0.694824 5.45365Z" fill="#55585B"/>
</svg>
