<svg width="115" height="101" viewBox="0 0 115 101" fill="none" xmlns="http://www.w3.org/2000/svg">
<path d="M111.44 3H3.55C3.24624 3 3 3.24624 3 3.55V26.85C3 27.1538 3.24624 27.4 3.55 27.4H111.44C111.744 27.4 111.99 27.1538 111.99 26.85V3.55C111.99 3.24624 111.744 3 111.44 3Z" fill="white"/>
<path d="M111.44 73.02H3.55C3.24624 73.02 3 73.2663 3 73.57V96.87C3 97.1738 3.24624 97.42 3.55 97.42H111.44C111.744 97.42 111.99 97.1738 111.99 96.87V73.57C111.99 73.2663 111.744 73.02 111.44 73.02Z" fill="white"/>
<path d="M111.44 38.01H3.55C3.24624 38.01 3 38.2563 3 38.56V61.86C3 62.1638 3.24624 62.41 3.55 62.41H111.44C111.744 62.41 111.99 62.1638 111.99 61.86V38.56C111.99 38.2563 111.744 38.01 111.44 38.01Z" fill="white"/>
<path d="M111.44 30.4C113.4 30.4 114.99 28.81 114.99 26.85V3.55C114.99 1.59 113.4 0 111.44 0H3.55C1.59 0 0 1.59 0 3.55V26.85C0 28.81 1.59 30.4 3.55 30.4H12.52V35.01H3.55C1.59 35.01 0 36.6 0 38.56V61.86C0 63.82 1.59 65.41 3.55 65.41H12.52V70.02H3.55C1.59 70.02 0 71.61 0 73.57V96.87C0 98.83 1.59 100.42 3.55 100.42H111.45C113.41 100.42 115 98.83 115 96.87V73.57C115 71.61 113.41 70.02 111.45 70.02H102.48V65.41H111.45C113.41 65.41 115 63.82 115 61.86V38.56C115 36.6 113.41 35.01 111.45 35.01H102.48V30.4H111.45H111.44ZM3 26.85V3.55C3 3.25 3.25 3 3.55 3H111.45C111.75 3 112 3.25 112 3.55V26.85C112 27.15 111.75 27.4 111.45 27.4H3.55C3.25 27.4 3 27.15 3 26.85ZM111.99 73.57V96.87C111.99 97.17 111.74 97.42 111.44 97.42H3.55C3.25 97.42 3 97.17 3 96.87V73.57C3 73.27 3.25 73.02 3.55 73.02H111.45C111.75 73.02 112 73.27 112 73.57H111.99ZM100.47 70.02H14.52V65.41H100.47V70.02ZM111.99 38.56V61.86C111.99 62.16 111.74 62.41 111.44 62.41H3.55C3.25 62.41 3 62.16 3 61.86V38.56C3 38.26 3.25 38.01 3.55 38.01H111.45C111.75 38.01 112 38.26 112 38.56H111.99ZM100.47 35.01H14.52V30.4H100.47V35.01Z" fill="#6C848D"/>
<path d="M45.2002 13.3201H7.93018V17.0801H45.2002V13.3201Z" fill="#6C848D"/>
<path d="M108.27 16.8201H100.74V24.3501H108.27V16.8201Z" fill="#6C848D"/>
<path d="M96.7898 16.8201H89.2598V24.3501H96.7898V16.8201Z" fill="#6C848D"/>
<path d="M85.32 16.8201H77.79V24.3501H85.32V16.8201Z" fill="#6C848D"/>
<path d="M45.2002 48.3301H7.93018V52.0901H45.2002V48.3301Z" fill="#6C848D"/>
<path d="M108.27 51.8301H100.74V59.3601H108.27V51.8301Z" fill="#6C848D"/>
<path d="M96.7898 51.8301H89.2598V59.3601H96.7898V51.8301Z" fill="#6C848D"/>
<path d="M85.32 51.8301H77.79V59.3601H85.32V51.8301Z" fill="#6C848D"/>
<path d="M45.2002 83.3401H7.93018V87.1001H45.2002V83.3401Z" fill="#6C848D"/>
<path d="M108.27 86.8401H100.74V94.3701H108.27V86.8401Z" fill="#6C848D"/>
<path d="M96.7898 86.8401H89.2598V94.3701H96.7898V86.8401Z" fill="#6C848D"/>
<path d="M85.32 86.8401H77.79V94.3701H85.32V86.8401Z" fill="#6C848D"/>
</svg>
