<svg width="40" height="80" viewBox="0 0 40 80" fill="none" xmlns="http://www.w3.org/2000/svg">
<path d="M32.76 3H6.76C4.68341 3 3 4.68341 3 6.76V72.52C3 74.5966 4.68341 76.28 6.76 76.28H32.76C34.8366 76.28 36.52 74.5966 36.52 72.52V6.76C36.52 4.68341 34.8366 3 32.76 3Z" fill="white"/>
<path d="M32.75 0H6.76C3.03 0 0 3.03 0 6.76V72.52C0 76.25 3.03 79.28 6.76 79.28H32.75C36.48 79.28 39.51 76.25 39.51 72.52V6.76C39.51 3.03 36.48 0 32.75 0ZM36.51 72.52C36.51 74.59 34.82 76.28 32.75 76.28H6.76C4.68 76.28 3 74.59 3 72.52V6.76C3 4.69 4.69 3 6.76 3H32.75C34.83 3 36.51 4.69 36.51 6.76V72.52Z" fill="#6C848D"/>
<path d="M26.76 6.23999H12.75V8.23999H26.76V6.23999Z" fill="#6C848D"/>
<path d="M19.7598 68.3201C18.2498 68.3201 17.0298 69.5401 17.0298 71.0501C17.0298 72.5601 18.2498 73.7801 19.7598 73.7801C21.2698 73.7801 22.4898 72.5601 22.4898 71.0501C22.4898 69.5401 21.2698 68.3201 19.7598 68.3201Z" fill="#6C848D"/>
<path d="M19.76 38.26C15.07 38.26 11.27 39.9 11.27 44.56V46.16H28.25V44.56C28.25 39.91 24.45 38.26 19.76 38.26ZM13.28 44.15C13.34 42.84 13.96 40.26 19.76 40.26C25.56 40.26 26.18 42.85 26.24 44.15H13.27H13.28Z" fill="#6C848D"/>
<path d="M19.7598 37.4201C22.2398 37.4201 24.2598 35.3901 24.2598 32.8801C24.2598 30.3701 22.2498 28.3401 19.7598 28.3401C17.2698 28.3401 15.2598 30.3701 15.2598 32.8801C15.2598 35.3901 17.2698 37.4201 19.7598 37.4201ZM19.7598 30.3501C21.1398 30.3501 22.2598 31.4901 22.2598 32.8901C22.2598 34.2901 21.1398 35.4301 19.7598 35.4301C18.3798 35.4301 17.2598 34.2901 17.2598 32.8901C17.2598 31.4901 18.3798 30.3501 19.7598 30.3501Z" fill="#6C848D"/>
<path d="M19.76 23.29C11.76 23.29 5.27002 29.78 5.27002 37.78C5.27002 45.78 11.76 52.27 19.76 52.27C27.76 52.27 34.25 45.78 34.25 37.78C34.25 29.78 27.76 23.29 19.76 23.29ZM19.76 50.27C12.87 50.27 7.27002 44.67 7.27002 37.78C7.27002 30.89 12.87 25.29 19.76 25.29C26.65 25.29 32.25 30.89 32.25 37.78C32.25 44.67 26.65 50.27 19.76 50.27Z" fill="#6C848D"/>
</svg>
