<svg width="573" height="502" viewBox="0 0 573 502" fill="none" xmlns="http://www.w3.org/2000/svg">
<path d="M515.512 124.21C469.849 107.502 409.088 132.657 372.118 92.5437C354.885 72.7228 344.814 46.8445 326.304 27.949C278.438 -21.0313 197.654 -0.453165 158.447 49.6881C100.495 130.873 119.627 200.28 31.1934 279.143C-13.427 317.944 -11.544 397.228 45.7026 422.769C77.4446 437.324 114.432 428.911 148.427 420.919C240.56 394.569 252.446 428.339 314.131 485.194C348.95 517.281 410.601 500.96 428.608 457.094C443.453 423.156 432.996 378.904 457.811 351.427C479.617 328.006 512.956 326.576 535.989 303.423C587.906 251.246 588.831 151.451 515.495 124.176L515.512 124.21Z" fill="#AFBBBF" fill-opacity="0.13"/>
</svg>
