<svg width="755" height="590" viewBox="0 0 755 590" fill="none" xmlns="http://www.w3.org/2000/svg">
<g clip-path="url(#clip0_361_1312)">
<path d="M691.421 364.568C670.104 389.362 638.288 401.259 606.957 406.382C589.507 409.236 571.964 405.934 554.512 410.491C493.937 426.277 467.187 495.332 413.637 522.897C386.617 536.801 353.561 533.988 325.378 522.659C279.901 504.368 263.571 445.291 220.548 421.806C176.258 397.619 122.162 417.293 75.2575 403.734C15.9347 386.584 7.97157 327.033 51.2005 287.51C125.716 219.404 98.6749 166.443 125.216 83.6888C145.588 20.2388 234.561 11.4578 283.454 47.4785C303.337 62.1151 317.613 82.9642 335.153 100.333C439.188 203.324 588.13 32.36 685.375 152.693C732.31 210.767 741.786 305.977 691.421 364.568Z" fill="#6C848D" fill-opacity="0.1"/>
</g>
<defs>
<clipPath id="clip0_361_1312">
<rect width="679" height="472" fill="white" transform="translate(87.7537) rotate(10.7147)"/>
</clipPath>
</defs>
</svg>
