<svg width="161" height="60" viewBox="0 0 161 60" fill="none" xmlns="http://www.w3.org/2000/svg">
<g clip-path="url(#clip0_18_4)">
<path fill-rule="evenodd" clip-rule="evenodd" d="M123.387 4.97502C123.515 4.37454 124.218 3.96364 125.221 3.38939C126.224 2.81515 128.066 2.39259 129.236 2.29112C130.016 2.22348 130.66 2.1761 131.169 2.14899C133.4 0.716331 135.474 0 137.391 0C140.266 0 142.415 1.53802 143.29 2.29112C144.164 3.04422 147.797 6.30591 148.789 7.89057C149.781 9.47523 150.045 10.0921 150.838 11.6694C151.631 13.2468 153.042 14.7546 154.27 15.5908C155.499 16.427 157.215 17.4598 158 18.832C158.786 20.2041 159.093 20.2988 160.133 23.9732C160.826 26.4228 161.104 28.7852 160.966 31.0604C160.98 32.3397 160.94 33.4051 160.843 34.2566C160.805 34.599 160.637 34.3837 160.626 34.5963C160.596 35.1767 160.693 35.6254 160.324 36.7327C159.819 38.2456 159.477 38.086 158.947 39.461C158.416 40.8359 158.397 41.1422 157.727 42.4226C157.057 43.703 156.808 43.4444 156.266 44.051C155.725 44.6576 155.561 44.9721 155.561 45.429C155.561 45.8858 157.209 51.887 157.727 53.4674C158.244 55.0479 159.713 57.2947 159.916 58.0943C160.12 58.8939 159.61 59.519 158.947 59.8162C158.504 60.0143 157.376 60.0523 155.561 59.9301L151.102 59.2953L149.578 58.8636C148.297 59.4987 147.057 59.8541 145.857 59.9301C145.291 59.9658 143.745 60.02 142.647 59.8162C141.981 59.6924 141.142 59.3749 140.132 58.8636H138.544C137.618 58.3136 137.155 57.811 137.155 57.3557C137.155 56.9005 137.358 56.0548 137.764 54.8185L139.375 49.6748C139.461 48.6986 139.461 48.1402 139.375 47.9996C139.29 47.859 139.013 48.0191 138.544 48.4798C138.394 48.6903 138.04 49.225 137.483 50.0839C136.648 51.3723 136.557 51.674 136.863 52.0659C137.168 52.4579 137.254 52.7511 137.254 52.996C137.254 53.1594 137.221 53.4935 137.155 53.9983C136.903 54.0555 136.745 54.0555 136.683 53.9983C136.588 53.9126 136.452 53.5984 136.279 53.5984C136.066 53.5984 135.912 53.6939 135.817 53.8849C135.513 53.8849 135.33 53.8849 135.267 53.8849C135.05 53.5984 134.955 53.3736 134.314 53.3736C133.672 53.3736 132.408 53.8835 132.102 53.9983C131.898 54.0749 131.53 54.1029 130.996 54.0823C131.204 53.6724 131.572 53.4088 132.102 53.2916C132.897 53.1157 133.888 52.996 134.84 52.0659C135.791 51.1358 136.506 49.9719 136.863 49.3461C137.219 48.7204 137.915 47.7298 138.061 47.0958C138.207 46.4618 137.976 45.6411 137.764 45.0866C137.623 44.7169 137.529 43.9007 137.483 42.6379C136.866 41.5645 136.465 40.7986 136.279 40.3399C136.001 39.6519 135.817 39.3871 135.709 38.8699C135.636 38.5251 135.568 38.0337 135.503 37.3957C134.861 36.8351 134.465 36.376 134.314 36.0184C134.163 35.6608 133.891 34.4255 133.498 32.3126C133.249 31.6757 133.074 31.3078 132.972 31.2088C132.87 31.1099 132.776 31.3213 132.692 31.8431C132.419 31.6372 132.222 31.4258 132.102 31.2088C131.923 30.8833 131.967 30.5534 131.967 30.1957C131.967 29.9572 132.012 29.2227 132.102 27.9921L132.972 24.3778C133.598 22.4688 134.045 21.168 134.314 20.4753C134.583 19.7826 134.979 18.9796 135.503 18.0663L136.114 16.8919C136.409 15.7463 136.465 14.8797 136.279 14.2922C136.093 13.7048 135.724 12.8702 135.17 11.7886C134.657 11.0379 134.229 10.4659 133.885 10.0728C133.541 9.67961 133.056 9.03912 132.43 8.1513C132.033 7.63932 131.612 7.23388 131.169 6.93496C130.504 6.48659 128.38 5.99248 127.42 5.77058C126.781 5.62265 126.131 5.50854 125.47 5.42828L124.231 5.3126C123.839 5.22934 123.557 5.11681 123.387 4.97502Z" fill="#55585B"/>
<path d="M11.3404 40.5646C10.4567 37.8183 9.23444 36.9027 7.69921 36.9027C5.12383 36.9027 3.48472 40.3035 3.48472 44.1743C3.48472 48.8564 5.2803 52.0469 7.69921 52.0469C9.52045 52.0469 10.535 50.4774 11.7572 48.2283L12.6935 48.4372C12.4075 49.536 11.9394 51.5498 11.5495 52.5441C10.9249 52.7272 9.23444 53.1457 7.75052 53.1457C2.08031 53.1457 0 48.8299 0 44.7237C0 39.4923 3.22564 35.8046 8.29689 35.8046C9.85776 35.8046 11.2622 36.1444 11.8868 36.3017C12.0432 37.897 12.1471 38.9693 12.2767 40.4079L11.3404 40.5646Z" fill="#55585B"/>
<path d="M20.0746 37.8447C20.0746 36.3017 20.022 36.2752 18.5651 36.0657V35.3074C19.8656 35.1507 21.6086 34.8102 22.9873 34.3917V50.0331C22.9873 51.6806 23.1694 51.8115 24.5482 51.9682V52.8316H18.4881V51.9682C19.8925 51.8115 20.0746 51.6806 20.0746 50.0331V37.8447Z" fill="#55585B"/>
<path d="M32.2179 44.645C32.2179 43.1278 32.191 43.0233 30.8122 42.7879V42.0032C32.1653 41.7943 33.6736 41.4538 35.1306 40.9573V50.0331C35.1306 51.6806 35.3127 51.8115 36.7171 51.9682V52.8316H30.657V51.9682C32.0358 51.8115 32.2179 51.6806 32.2179 50.0331V44.645ZM33.5441 35.072C34.5329 35.072 35.2871 35.8826 35.2871 36.9291C35.2871 37.9228 34.5329 38.7597 33.5184 38.7597C32.5822 38.7597 31.7754 37.9228 31.7754 36.9291C31.7754 35.8826 32.5822 35.072 33.5184 35.072H33.5441Z" fill="#55585B"/>
<path d="M44.0996 44.5663C44.0996 42.9446 44.0483 42.9188 42.6695 42.7357V41.9245C44.1522 41.6634 45.5822 41.2184 47.0136 40.7219V42.5526L49.1195 41.1926C49.3286 41.0617 49.6928 40.9831 50.161 40.9831C52.9441 40.9831 54.3998 43.5727 54.3998 46.0314C54.3998 49.9287 51.8257 52.4132 48.6514 53.1457C47.8716 53.1457 47.3252 52.9361 47.0136 52.7794V56.0486C47.0136 57.749 47.1688 57.9322 49.0426 58.0631V58.9258H42.5131V58.0631C43.9431 57.9322 44.0996 57.749 44.0996 56.1009V44.5663ZM47.0136 50.8179C47.4548 51.3408 48.2615 51.7851 48.99 51.7851C50.0301 51.7851 51.4089 50.8437 51.4089 47.1559C51.4089 44.0434 50.134 42.9188 48.7822 42.9188C48.0537 42.9188 47.4291 43.3109 47.0136 43.7036V50.8179Z" fill="#55585B"/>
<path d="M72.7584 40.5646C71.8747 37.8183 70.6524 36.9027 69.1172 36.9027C66.5418 36.9027 64.9027 40.3035 64.9027 44.1743C64.9027 48.8564 66.6983 52.0469 69.1172 52.0469C70.9384 52.0469 71.9529 50.4774 73.1752 48.2283L74.1115 48.4372C73.8255 49.536 73.3573 51.5498 72.9674 52.5441C72.3428 52.7272 70.6524 53.1457 69.1698 53.1457C63.4983 53.1457 61.418 48.8299 61.418 44.7237C61.418 39.4923 64.6436 35.8046 69.7149 35.8046C71.2757 35.8046 72.6801 36.1444 73.3048 36.3017C73.4612 37.897 73.5651 38.9693 73.6947 40.4079L72.7584 40.5646Z" fill="#55585B"/>
<path d="M81.8569 44.5663C81.8569 43.0233 81.8043 42.9975 80.4781 42.7093V41.9509C82.039 41.7678 83.5216 41.428 84.7696 40.9573V43.5985H84.8222C85.7059 41.9245 86.6421 40.9831 87.631 40.9831C88.4634 40.9831 89.1393 41.7414 89.1393 42.5784C89.1393 43.4682 88.5159 44.1743 87.9696 44.3832C87.6566 44.5141 87.4232 44.4619 87.2667 44.331C86.8768 43.9912 86.5652 43.808 86.2009 43.808C85.7584 43.808 85.1864 44.1221 84.7696 45.2724V50.0331C84.7696 51.6806 84.9261 51.8115 86.669 51.9682V52.8316H80.3217V51.9682C81.7004 51.8115 81.8569 51.6806 81.8569 50.0589V44.5663Z" fill="#55585B"/>
<path d="M100.891 40.983C104.143 40.983 106.172 43.7558 106.172 46.8161C106.172 51.079 103.518 53.1456 100.762 53.1456C97.145 53.1456 95.3251 50.164 95.3251 47.3648C95.3251 43.1799 98.1595 40.983 100.866 40.983H100.891ZM100.527 42.0818C99.5126 42.0818 98.602 43.5204 98.602 46.3189C98.602 49.6404 99.5126 52.0468 101.048 52.0468C101.984 52.0468 102.946 51.2885 102.946 47.5744C102.946 44.2523 102.114 42.0818 100.553 42.0818H100.527Z" fill="#55585B"/>
<path d="M116.727 53.0412C115.842 49.9022 114.88 46.711 113.944 43.6514C113.58 42.4217 113.319 42.3172 112.305 42.1605V41.2971H118.053V42.1605C116.675 42.3695 116.623 42.6048 116.831 43.4153C117.247 45.1157 117.742 46.8942 118.183 48.6468H118.235C119.042 46.2925 119.848 43.8345 120.68 41.428H121.721C122.527 43.8345 123.359 46.2403 124.192 48.6468H124.244C124.687 47.4177 125.363 45.0113 125.649 43.6249C125.883 42.5526 125.779 42.343 124.374 42.1605V41.2971H128.745V42.1605C127.703 42.3695 127.548 42.5261 127.106 43.7294C126.195 46.2403 125.18 49.4573 124.062 53.0412H122.918C122.111 50.7128 121.279 48.3327 120.368 45.8218C119.483 48.2283 118.625 50.6347 117.819 53.0412H116.727Z" fill="#55585B"/>
</g>
<defs>
<clipPath id="clip0_18_4">
<rect width="161" height="60" fill="white"/>
</clipPath>
</defs>
</svg>
