<svg width="146" height="54" viewBox="0 0 146 54" fill="none" xmlns="http://www.w3.org/2000/svg">
<g clip-path="url(#clip0_103_1114)">
<path fill-rule="evenodd" clip-rule="evenodd" d="M111.892 4.47751C112.008 3.93709 112.645 3.56727 113.554 3.05045C114.464 2.53363 116.135 2.15333 117.195 2.06201C117.903 2.00113 118.487 1.95849 118.948 1.93409C120.971 0.644698 122.852 0 124.591 0C127.198 0 129.147 1.38422 129.94 2.06201C130.733 2.7398 134.027 5.67532 134.927 7.10152C135.826 8.52771 136.066 9.08287 136.785 10.5025C137.504 11.9221 138.783 13.2791 139.897 14.0317C141.012 14.7843 142.567 15.7138 143.28 16.9488C143.992 18.1837 144.27 18.2689 145.213 21.5759C145.842 23.7806 146.094 25.9067 145.969 27.9543C145.982 29.1057 145.945 30.0646 145.858 30.8309C145.823 31.1391 145.671 30.9453 145.661 31.1366C145.634 31.659 145.722 32.0629 145.387 33.0594C144.929 34.421 144.618 34.2774 144.138 35.5149C143.657 36.7523 143.639 37.028 143.032 38.1804C142.424 39.3327 142.199 39.1 141.707 39.6459C141.216 40.1919 141.068 40.4749 141.068 40.8861C141.068 41.2972 142.562 46.6983 143.032 48.1207C143.501 49.5431 144.832 51.5652 145.017 52.2849C145.202 53.0045 144.739 53.5671 144.138 53.8346C143.737 54.0129 142.714 54.047 141.068 53.9371L137.024 53.3658L135.642 52.9773C134.48 53.5488 133.356 53.8687 132.267 53.9371C131.755 53.9692 130.353 54.018 129.357 53.8346C128.753 53.7232 127.993 53.4374 127.076 52.9773H125.637C124.797 52.4823 124.377 52.0299 124.377 51.6202C124.377 51.2104 124.561 50.4493 124.929 49.3367L126.39 44.7073C126.467 43.8287 126.467 43.3262 126.39 43.1997C126.313 43.0731 126.061 43.2172 125.637 43.6318C125.5 43.8213 125.179 44.3025 124.674 45.0755C123.916 46.235 123.834 46.5066 124.111 46.8593C124.389 47.2121 124.467 47.476 124.467 47.6964C124.467 47.8434 124.437 48.1441 124.377 48.5985C124.148 48.6499 124.005 48.6499 123.948 48.5985C123.863 48.5213 123.74 48.2386 123.582 48.2386C123.389 48.2386 123.249 48.3245 123.163 48.4964C122.888 48.4964 122.721 48.4964 122.664 48.4964C122.467 48.2386 122.382 48.0362 121.8 48.0362C121.218 48.0362 120.072 48.4951 119.795 48.5985C119.61 48.6674 119.275 48.6926 118.792 48.6741C118.98 48.3052 119.314 48.0679 119.795 47.9624C120.515 47.8042 121.414 47.6964 122.277 46.8593C123.14 46.0222 123.788 44.9747 124.111 44.4115C124.435 43.8483 125.066 42.9568 125.198 42.3862C125.33 41.8156 125.121 41.077 124.929 40.5779C124.801 40.2452 124.716 39.5106 124.674 38.3741C124.114 37.4081 123.75 36.7187 123.582 36.3059C123.33 35.6867 123.163 35.4483 123.065 34.9829C122.999 34.6726 122.937 34.2304 122.878 33.6561C122.297 33.1516 121.937 32.7384 121.8 32.4165C121.663 32.0947 121.417 30.983 121.06 29.0813C120.835 28.5081 120.676 28.177 120.583 28.0879C120.49 27.9989 120.406 28.1892 120.33 28.6588C120.081 28.4735 119.903 28.2832 119.795 28.0879C119.632 27.795 119.672 27.4981 119.672 27.1761C119.672 26.9615 119.713 26.3004 119.795 25.1929L120.583 21.94C121.151 20.2219 121.556 19.0512 121.8 18.4277C122.044 17.8043 122.403 17.0816 122.878 16.2597L123.432 15.2027C123.7 14.1716 123.75 13.3917 123.582 12.863C123.414 12.3343 123.079 11.5832 122.576 10.6098C122.111 9.93408 121.723 9.41932 121.411 9.06548C121.099 8.71164 120.66 8.13521 120.092 7.33617C119.732 6.87539 119.35 6.51049 118.948 6.24147C118.345 5.83793 116.419 5.39324 115.549 5.19352C114.969 5.06038 114.379 4.95769 113.78 4.88545L112.657 4.78134C112.301 4.7064 112.046 4.60513 111.892 4.47751Z" fill="white"/>
<path d="M10.2838 36.5082C9.48249 34.0365 8.37409 33.2124 6.9819 33.2124C4.64646 33.2124 3.16005 36.2731 3.16005 39.7569C3.16005 43.9707 4.78835 46.8422 6.9819 46.8422C8.63345 46.8422 9.55344 45.4297 10.6618 43.4055L11.5109 43.5935C11.2515 44.5824 10.827 46.3948 10.4734 47.2897C9.90701 47.4545 8.37409 47.8311 7.02842 47.8311C1.8865 47.8311 0 43.9469 0 40.2514C0 35.5431 2.92512 32.2241 7.52388 32.2241C8.93934 32.2241 10.2129 32.53 10.7793 32.6716C10.9212 34.1073 11.0154 35.0724 11.1329 36.3672L10.2838 36.5082Z" fill="white"/>
<path d="M18.2043 34.0603C18.2043 32.6716 18.1567 32.6478 16.8354 32.4592V31.7767C18.0148 31.6357 19.5954 31.3293 20.8457 30.9526V45.0299C20.8457 46.5127 21.0108 46.6305 22.2611 46.7715V47.5486H16.7656V46.7715C18.0392 46.6305 18.2043 46.5127 18.2043 45.0299V34.0603Z" fill="white"/>
<path d="M29.2163 40.1806C29.2163 38.8151 29.1918 38.7211 27.9415 38.5093V37.803C29.1686 37.615 30.5363 37.3085 31.8576 36.8617V45.0299C31.8576 46.5127 32.0227 46.6305 33.2963 46.7715V47.5486H27.8008V46.7715C29.0511 46.6305 29.2163 46.5127 29.2163 45.0299V40.1806ZM30.4189 31.5649C31.3156 31.5649 31.9995 32.2944 31.9995 33.2363C31.9995 34.1306 31.3156 34.8839 30.3956 34.8839C29.5466 34.8839 28.815 34.1306 28.815 33.2363C28.815 32.2944 29.5466 31.5649 30.3956 31.5649H30.4189Z" fill="white"/>
<path d="M39.9909 40.1099C39.9909 38.6503 39.9444 38.6271 38.6941 38.4623V37.7322C40.0386 37.4972 41.3354 37.0968 42.6334 36.6499V38.2975L44.5432 37.0735C44.7327 36.9557 45.0631 36.8849 45.4876 36.8849C48.0114 36.8849 49.3315 39.2156 49.3315 41.4284C49.3315 44.936 46.9972 47.172 44.1187 47.8313C43.4115 47.8313 42.916 47.6427 42.6334 47.5016V50.444C42.6334 51.9743 42.7741 52.1391 44.4734 52.2569V53.0334H38.5522V52.2569C39.849 52.1391 39.9909 51.9743 39.9909 50.491V40.1099ZM42.6334 45.7363C43.0335 46.2069 43.7651 46.6068 44.4257 46.6068C45.3689 46.6068 46.6192 45.7595 46.6192 42.4405C46.6192 39.6392 45.4632 38.6271 44.2373 38.6271C43.5767 38.6271 43.0102 38.98 42.6334 39.3334V45.7363Z" fill="white"/>
<path d="M65.9797 36.5082C65.1783 34.0365 64.0699 33.2124 62.6777 33.2124C60.3423 33.2124 58.8559 36.2731 58.8559 39.7569C58.8559 43.9707 60.4842 46.8422 62.6777 46.8422C64.3293 46.8422 65.2493 45.4297 66.3577 43.4055L67.2067 43.5935C66.9473 44.5824 66.5228 46.3948 66.1693 47.2897C65.6028 47.4545 64.0699 47.8311 62.7254 47.8311C57.5823 47.8311 55.6958 43.9469 55.6958 40.2514C55.6958 35.5431 58.6209 32.2241 63.2197 32.2241C64.6352 32.2241 65.9087 32.53 66.4751 32.6716C66.617 34.1073 66.7112 35.0724 66.8287 36.3672L65.9797 36.5082Z" fill="white"/>
<path d="M74.2305 40.11C74.2305 38.7212 74.1828 38.698 72.9802 38.4386V37.7561C74.3956 37.5913 75.7401 37.2855 76.8718 36.8618V39.2389H76.9195C77.7208 37.7323 78.5699 36.885 79.4666 36.885C80.2214 36.885 80.8344 37.5675 80.8344 38.3208C80.8344 39.1217 80.2691 39.7571 79.7737 39.9452C79.4899 40.063 79.2782 40.016 79.1363 39.8981C78.7827 39.5923 78.5001 39.4275 78.1698 39.4275C77.7685 39.4275 77.2498 39.7101 76.8718 40.7454V45.0301C76.8718 46.5128 77.0137 46.6306 78.5943 46.7717V47.5487H72.8383V46.7717C74.0886 46.6306 74.2305 46.5128 74.2305 45.0533V40.11Z" fill="white"/>
<path d="M91.4916 36.8848C94.4399 36.8848 96.2799 39.3802 96.2799 42.1345C96.2799 45.9711 93.8735 47.8311 91.3741 47.8311C88.0942 47.8311 86.4438 45.1476 86.4438 42.6284C86.4438 38.862 89.0142 36.8848 91.4683 36.8848H91.4916ZM91.1612 37.8737C90.2413 37.8737 89.4155 39.1684 89.4155 41.6871C89.4155 44.6764 90.2413 46.8422 91.6335 46.8422C92.4825 46.8422 93.3548 46.1597 93.3548 42.817C93.3548 39.8271 92.6 37.8737 91.1845 37.8737H91.1612Z" fill="white"/>
<path d="M105.852 47.7372C105.049 44.9121 104.177 42.04 103.328 39.2863C102.998 38.1796 102.762 38.0856 101.842 37.9445V37.1675H107.055V37.9445C105.804 38.1326 105.758 38.3444 105.946 39.0739C106.323 40.6042 106.772 42.2048 107.172 43.7822H107.22C107.951 41.6634 108.682 39.4511 109.437 37.2853H110.381C111.111 39.4511 111.866 41.6163 112.621 43.7822H112.669C113.07 42.676 113.683 40.5102 113.942 39.2625C114.155 38.2974 114.061 38.1088 112.786 37.9445V37.1675H116.75V37.9445C115.805 38.1326 115.665 38.2736 115.264 39.3565C114.438 41.6163 113.518 44.5117 112.504 47.7372H111.466C110.735 45.6416 109.98 43.4995 109.154 41.2397C108.351 43.4055 107.573 45.5713 106.842 47.7372H105.852Z" fill="white"/>
</g>
<defs>
<clipPath id="clip0_103_1114">
<rect width="146" height="54" fill="white"/>
</clipPath>
</defs>
</svg>
